<mxfile host="app.diagrams.net" modified="2024-05-18T13:56:51.657Z" agent="Mozilla/5.0 (Windows NT 10.0; Win64; x64) AppleWebKit/537.36 (KHTML, like Gecko) Chrome/124.0.0.0 Safari/537.36 Edg/124.0.0.0" etag="J0dcwUHn0-dAe3x9pXJ9" version="24.4.0" type="device">
  <diagram name="Trang-1" id="RufHjK9E6aXaLeSwLsm4">
    <mxGraphModel dx="1042" dy="577" grid="1" gridSize="10" guides="1" tooltips="1" connect="1" arrows="1" fold="1" page="1" pageScale="1" pageWidth="827" pageHeight="1169" math="0" shadow="0">
      <root>
        <mxCell id="0" />
        <mxCell id="1" parent="0" />
        <mxCell id="5sREDWAVeBpTvNdoZHE6-1" value="Người dùng" style="shape=umlActor;verticalLabelPosition=bottom;verticalAlign=top;html=1;outlineConnect=0;" vertex="1" parent="1">
          <mxGeometry x="161" y="300" width="30" height="60" as="geometry" />
        </mxCell>
        <mxCell id="5sREDWAVeBpTvNdoZHE6-3" value="Tạo nhóm học" style="ellipse;whiteSpace=wrap;html=1;" vertex="1" parent="1">
          <mxGeometry x="271" y="310" width="120" height="50" as="geometry" />
        </mxCell>
        <mxCell id="5sREDWAVeBpTvNdoZHE6-4" value="Nhập tên nhóm học&lt;span style=&quot;color: rgba(0, 0, 0, 0); font-family: monospace; font-size: 0px; text-align: start; text-wrap: nowrap;&quot;&gt;%3CmxGraphModel%3E%3Croot%3E%3CmxCell%20id%3D%220%22%2F%3E%3CmxCell%20id%3D%221%22%20parent%3D%220%22%2F%3E%3CmxCell%20id%3D%222%22%20value%3D%22T%E1%BA%A1o%20nh%C3%B3m%20h%E1%BB%8Dc%22%20style%3D%22ellipse%3BwhiteSpace%3Dwrap%3Bhtml%3D1%3B%22%20vertex%3D%221%22%20parent%3D%221%22%3E%3CmxGeometry%20x%3D%22210%22%20y%3D%22310%22%20width%3D%22120%22%20height%3D%2250%22%20as%3D%22geometry%22%2F%3E%3C%2FmxCell%3E%3C%2Froot%3E%3C%2FmxGraphModel%3E&lt;/span&gt;" style="ellipse;whiteSpace=wrap;html=1;" vertex="1" parent="1">
          <mxGeometry x="531" y="240" width="120" height="50" as="geometry" />
        </mxCell>
        <mxCell id="5sREDWAVeBpTvNdoZHE6-5" value="Mô tả nhóm học" style="ellipse;whiteSpace=wrap;html=1;" vertex="1" parent="1">
          <mxGeometry x="531" y="330" width="120" height="50" as="geometry" />
        </mxCell>
        <mxCell id="5sREDWAVeBpTvNdoZHE6-6" value="Đính kèm tài liệu học" style="ellipse;whiteSpace=wrap;html=1;" vertex="1" parent="1">
          <mxGeometry x="531" y="420" width="120" height="50" as="geometry" />
        </mxCell>
        <mxCell id="5sREDWAVeBpTvNdoZHE6-7" value="" style="endArrow=none;html=1;rounded=0;" edge="1" parent="1" source="5sREDWAVeBpTvNdoZHE6-1" target="5sREDWAVeBpTvNdoZHE6-3">
          <mxGeometry width="50" height="50" relative="1" as="geometry">
            <mxPoint x="171" y="360" as="sourcePoint" />
            <mxPoint x="221" y="310" as="targetPoint" />
          </mxGeometry>
        </mxCell>
        <mxCell id="5sREDWAVeBpTvNdoZHE6-13" value="&amp;lt;&amp;lt;include&amp;gt;&amp;gt;" style="endArrow=open;endSize=12;dashed=1;html=1;rounded=0;" edge="1" parent="1" source="5sREDWAVeBpTvNdoZHE6-3" target="5sREDWAVeBpTvNdoZHE6-4">
          <mxGeometry width="160" relative="1" as="geometry">
            <mxPoint x="291" y="440" as="sourcePoint" />
            <mxPoint x="451" y="440" as="targetPoint" />
          </mxGeometry>
        </mxCell>
        <mxCell id="5sREDWAVeBpTvNdoZHE6-14" value="&amp;lt;&amp;lt;include&amp;gt;&amp;gt;" style="endArrow=open;endSize=12;dashed=1;html=1;rounded=0;exitX=0.985;exitY=0.646;exitDx=0;exitDy=0;exitPerimeter=0;" edge="1" parent="1" source="5sREDWAVeBpTvNdoZHE6-3" target="5sREDWAVeBpTvNdoZHE6-5">
          <mxGeometry width="160" relative="1" as="geometry">
            <mxPoint x="391" y="332" as="sourcePoint" />
            <mxPoint x="551" y="289" as="targetPoint" />
          </mxGeometry>
        </mxCell>
        <mxCell id="5sREDWAVeBpTvNdoZHE6-15" value="&amp;lt;&amp;lt;include&amp;gt;&amp;gt;" style="endArrow=open;endSize=12;dashed=1;html=1;rounded=0;" edge="1" parent="1" source="5sREDWAVeBpTvNdoZHE6-3" target="5sREDWAVeBpTvNdoZHE6-6">
          <mxGeometry width="160" relative="1" as="geometry">
            <mxPoint x="401" y="342" as="sourcePoint" />
            <mxPoint x="561" y="299" as="targetPoint" />
          </mxGeometry>
        </mxCell>
        <mxCell id="5sREDWAVeBpTvNdoZHE6-16" value="Nhập địa điểm học nhóm" style="ellipse;whiteSpace=wrap;html=1;" vertex="1" parent="1">
          <mxGeometry x="516" y="510" width="150" height="50" as="geometry" />
        </mxCell>
        <mxCell id="5sREDWAVeBpTvNdoZHE6-17" value="&amp;lt;&amp;lt;include&amp;gt;&amp;gt;" style="endArrow=open;endSize=12;dashed=1;html=1;rounded=0;exitX=0.617;exitY=0.99;exitDx=0;exitDy=0;exitPerimeter=0;entryX=0.06;entryY=0.203;entryDx=0;entryDy=0;entryPerimeter=0;" edge="1" parent="1" source="5sREDWAVeBpTvNdoZHE6-3" target="5sREDWAVeBpTvNdoZHE6-16">
          <mxGeometry width="160" relative="1" as="geometry">
            <mxPoint x="383" y="363" as="sourcePoint" />
            <mxPoint x="559" y="437" as="targetPoint" />
          </mxGeometry>
        </mxCell>
      </root>
    </mxGraphModel>
  </diagram>
</mxfile>
